An out-of-the-way diner becomes the unlikely battleground for the survival of the human race.
When God loses faith in humankind, he sends his legion of angels to bring on the Apocalypse.
Humanity's only hope lies in a group of strangers trapped in a desert diner with the
Archangel Michael (Bettany).

Paul Bettany ... Michael
Lucas Black ... Jeep Hanson
Tyrese Gibson ... Kyle Williams
Adrianne Palicki ... Charlie
Charles S. Dutton... Percy Walker
Kevin Durand ... Gabriel
Jon Tenney ... Howard Anderson
Willa Holland ... Audrey Anderson
Kate Walsh ... Sandra Anderson
Dennis Quaid ... Bob Hanson
Jeanette Miller ... Gladys Foster
Cameron Harlow ... Minivan Boy
Doug Jones ... Ice Cream Man
Josh Stamberg ... Burton
Yancey Arias ... Estevez

General
UniqueID                         : 251243667929000200156432359971077726618 (0xBD03C535042BDC0FB176C2B2F11FA19A)
Complete name                    : Legion 2010 BRRip 720p Hindi~3385VKSH
Format                           : Matroska
File size                        : 1.43 GiB
Duration                         : 1h 36mn
Overall bit rate                 : 2 132 Kbps
Movie name                       : VKS3385~Beats music Gallery
Encoded date                     : UTC 2011-01-15 08:54:58
Writing application              : mkvmerge v4.4.0 ('Die Wiederkehr') built on Oct 31 2010 21:52:48
Writing library                  : libebml v1.0.0 + libmatroska v1.0.0
[/B]

[IMG]http://img839.imageshack.us/img839/7057/imdb3.png[/IMG]
[SIZE=3][URL]http://www.imdb.com/title//[/URL][/SIZE]

Video
ID                               : 1
Format                           : AVC
Format/Info                      : Advanced Video Codec
Format profile                   : High@L4.1
Format settings, CABAC           : Yes
Format settings, ReFrames        : 8 frames
Muxing mode                      : Header stripping
Codec ID                         : V_MPEG4/ISO/AVC
Duration                         : 1h 36mn
Bit rate                         : 1 866 Kbps
Width                            : 1 280 pixels
Height                           : 528 pixels
Display aspect ratio             : 2.40:1
Frame rate                       : 25.000 fps
Original frame rate              : 23.976 fps
Color space                      : YUV
Chroma subsampling               : 4:2:0
Bit depth                        : 8 bits
Scan type                        : Progressive
Bits/(Pixel*Frame)               : 0.110
Stream size                      : 1.25 GiB (88%)

Audio
ID                               : 2
Format                           : MPEG Audio
Format version                   : Version 1
Format profile                   : Layer 3
Mode                             : Joint stereo
Mode extension                   : MS Stereo
Muxing mode                      : Header stripping
Codec ID                         : A_MPEG/L3
Codec ID/Hint                    : MP3
Duration                         : 1h 36mn
Bit rate mode                    : Constant
Bit rate                         : 224 Kbps
Channel(s)                       : 2 channels
Sampling rate                    : 44.1 KHz
Compression mode                 : Lossy
Video delay                      : 2s 200ms
Stream size                      : 154 MiB (11%)
Writing library                  : LAME3.97


 
http://img340.imageshack.us/img340/1414/legion2009m720ppower102.png 
http://img18.imageshack.us/img18/1414/legion2009m720ppower102.png 
http://img153.imageshack.us/img153/1414/legion2009m720ppower102.png 
http://img641.imageshack.us/img641/1414/legion2009m720ppower102.png 
http://img13.imageshack.us/img13/1414/legion2009m720ppower102.png


